Coordinates
version=1
nRows=19
nColumns=24
inDegrees=yes

Units are S.I. units (second, meters, Newtons, ...)
Angles are in degrees.

endheader
time	pelvis_tilt	pelvis_list	pelvis_rotation	pelvis_tx	pelvis_ty	pelvis_tz	hip_flexion_r	hip_adduction_r	hip_rotation_r	knee_angle_r	ankle_angle_r	subtalar_angle_r	mtp_angle_r	hip_flexion_l	hip_adduction_l	hip_rotation_l	knee_angle_l	ankle_angle_l	subtalar_angle_l	mtp_angle_l	lumbar_extension	lumbar_bending	lumbar_rotation
      0.62600000	     -2.51206450	      4.67230822	      2.59442512	     -0.79149553	      0.99633057	      0.27078125	     25.44033293	     -5.27513187	     -9.00886716	      2.30465863	      3.18891002	     -6.28757344	     -8.04613110	    -12.30847003	      6.40849832	     -3.35481130	     -6.06093373	     10.25244524	     -7.62811686	    -12.30507421	     -9.36826108	     -5.61157313	     -1.50806056
      0.63016667	     -1.94774841	      4.43765456	      2.88297304	     -0.78558329	      0.99674122	      0.27028218	     24.80122512	     -5.12603947	     -9.37149571	      1.76877388	      3.01748727	     -6.54089973	     -7.95977007	    -13.12695196	      6.02807573	     -3.03617894	     -6.34263966	     10.32535938	     -7.57561434	    -12.46497005	    -10.02172004	     -5.16665783	     -2.08532235
      0.63433333	     -1.63188860	      4.33301406	      2.96258397	     -0.77970975	      0.99661228	      0.27034720	     24.52653217	     -5.00280589	     -9.35648187	      1.10769355	      2.81229051	     -6.89225291	     -7.87419276	    -13.64915122	      5.81766105	     -2.98428068	     -6.68446266	     10.36989421	     -7.42009109	    -12.55518210	    -10.38236871	     -4.96962926	     -2.18168140
      0.63850000	     -1.32495510	      4.15342435	      3.02437322	     -0.77356655	      0.99649977	      0.27040492	     24.21168248	     -4.79275201	     -9.36027814	      0.49710545	      2.58191607	     -7.20403801	     -7.72866143	    -14.17608757	      5.53141871	     -2.97871612	     -7.02091133	     10.45807215	     -7.24828075	    -12.64167230	    -10.67447528	     -4.66195862	     -2.33887480
      0.64266667	     -1.07858255	      4.03947629	      3.10719055	     -0.76755966	      0.99631575	      0.27054965	     23.96363853	     -4.64748370	     -9.29694212	     -0.11368176	      2.25655930	     -7.60318510	     -7.61249176	    -14.59107034	      5.30304080	     -2.93884284	     -7.42980879	     10.46098900	     -7.07928791	    -12.67544930	    -10.92746591	     -4.45519912	     -2.48113828
      0.64683333	     -1.67593841	      4.16293987	      2.97276396	     -0.76149803	      0.99476512	      0.27076981	     24.81330072	     -4.71275068	     -8.88199470	     -1.02914607	      2.00104025	     -7.79695464	     -7.44183304	    -14.09037662	      5.47861146	     -2.90772583	     -7.91236412	     10.44151829	     -7.27252168	    -12.69426914	    -10.18915063	     -4.58344530	     -2.46204547
      0.65100000	     -1.56628860	      4.07576294	      3.07889527	     -0.75550275	      0.99444925	      0.27094444	     24.69090554	     -4.60358054	     -8.80344985	     -1.60991064	      1.53422488	     -8.19318137	     -7.35705290	    -14.29769217	      5.27952117	     -2.82163164	     -8.43964113	     10.45265857	     -7.13985683	    -12.68692449	    -10.28137484	     -4.42334777	     -2.56925797
      0.65516667	     -1.42455291	      3.95839323	      3.15701470	     -0.74943441	      0.99421366	      0.27123812	     24.49983197	     -4.44086514	     -8.69293950	     -2.11869742	      0.99059544	     -8.60082233	     -7.24623169	    -14.51659535	      5.04064604	     -2.81511646	     -9.01353754	     10.43633289	     -6.97115395	    -12.66150159	    -10.40812062	     -4.23105970	     -2.74414351
      0.65933333	     -1.27953107	      3.82367004	      3.22168299	     -0.74328717	      0.99402815	      0.27156707	     24.27343092	     -4.25118043	     -8.55560859	     -2.56253678	      0.38318884	     -9.03116392	     -7.09630550	    -14.71649967	      4.78077862	     -2.86398624	     -9.62719003	     10.38065330	     -6.78191594	    -12.60832369	    -10.51511585	     -4.00134140	     -2.88746563
      0.66350000	     -1.16502386	      3.67437599	      3.26879168	     -0.73709424	      0.99383221	      0.27196851	     24.06909920	     -4.03647645	     -8.41474201	     -2.97456865	     -0.31472504	     -9.48061759	     -6.93647986	    -14.86776053	      4.50671661	     -2.91946532	    -10.27299591	     10.31814942	     -6.57669022	    -12.53286359	    -10.59300461	     -3.78803414	     -2.99560994
      0.66766667	     -1.06395652	      3.52171926	      3.28942223	     -0.73087506	      0.99365258	      0.27245195	     23.86688383	     -3.80507684	     -8.23088643	     -3.34984156	     -1.05978563	     -9.94721262	     -6.75557090	    -14.97334728	      4.23041199	     -3.02856788	    -10.97301250	     10.21058531	     -6.37568867	    -12.42739391	    -10.64695796	     -3.56681422	     -3.07997508
      0.67183333	     -0.93086116	      3.34978193	      3.21596108	     -0.72462341	      0.99352459	      0.27321374	     23.61952412	     -3.50175189	     -7.92539572	     -3.66784048	     -1.86206975	    -10.45437695	     -6.43035862	    -15.08754745	      3.93255031	     -3.31191026	    -11.72588128	     10.11417793	     -6.05105444	    -12.20406774	    -10.73465340	     -3.36131193	     -3.12756608
      0.67600000	     -0.85329520	      3.16958652	      3.15250666	     -0.71832924	      0.99336873	      0.27391178	     23.44137461	     -3.20656522	     -7.69349340	     -4.00934627	     -2.73016649	    -11.01237781	     -6.01843061	    -15.12984648	      3.63323655	     -3.54869277	    -12.49508301	      9.94969130	     -5.77064689	    -11.87031383	    -10.74311717	     -3.13164917	     -3.12314157
      0.68016667	     -0.85352066	      2.99057868	      3.19867716	     -0.71204423	      0.99322298	      0.27432699	     23.30918456	     -2.97659745	     -7.58425986	     -4.30876818	     -3.55375144	    -11.44907142	     -5.84281996	    -15.03472758	      3.33253843	     -3.61440326	    -13.35697270	      9.70944483	     -5.70544953	    -11.70030683	    -10.65428855	     -2.87915699	     -3.08924934
      0.68433333	     -0.75478114	      2.78877619	      3.02599900	     -0.70577504	      0.99316048	      0.27536515	     23.10148719	     -2.60517338	     -7.19645434	     -4.59638259	     -4.46437365	    -12.07232135	     -5.42683764	    -15.02978265	      3.00562988	     -4.04707227	    -14.25277170	      9.51019602	     -5.31312091	    -11.24837149	    -10.70485648	     -2.67106623	     -3.06959591
      0.68850000	     -0.74839166	      2.58482429	      2.92687173	     -0.69949829	      0.99305987	      0.27618055	     22.98504044	     -2.28234187	     -6.92909118	     -4.89589931	     -5.35967933	    -12.65400757	     -4.99145853	    -14.88618385	      2.67992574	     -4.34783400	    -15.21360526	      9.21662086	     -5.09218320	    -10.69232654	    -10.63055541	     -2.43631102	     -2.98407268
      0.69266667	     -0.72724723	      2.35816753	      2.81808500	     -0.69320791	      0.99303801	      0.27698521	     22.84910612	     -1.94186819	     -6.69389509	     -5.19445414	     -6.21638873	    -13.18158082	     -4.56001699	    -14.73276812	      2.32969716	     -4.65858893	    -16.21770886	      8.87707255	     -4.88795493	    -10.04760392	    -10.57178812	     -2.16924567	     -2.87423233
      0.69683333	     -0.82117410	      2.14122401	      2.69576073	     -0.68687834	      0.99287710	      0.27773980	     22.86840571	     -1.63265541	     -6.52582047	     -5.57028069	     -6.95425069	    -13.56808245	      0.23501038	    -14.42544587	      2.00283364	     -4.97774065	    -17.26492793	      8.35710579	     -4.87083222	     -1.35322076	    -10.36394420	     -1.90917020	     -2.69620938
      0.70100000	     -0.75387816	      1.88716053	      2.60322491	     -0.68062966	      0.99307859	      0.27844707	     22.67293896	     -1.28903125	     -6.36779145	     -5.86938827	     -7.73287168	    -14.02205691	      0.18053436	    -14.25505013	      1.61846981	     -5.25005487	    -18.36308243	      7.89818616	     -4.76193290	     -1.25563398	    -10.37191897	     -1.59691280	     -2.63206769
